<svg width="16" height="16" viewBox="0 0 16 16" fill="none" xmlns="http://www.w3.org/2000/svg">
<path fill-rule="evenodd" clip-rule="evenodd" d="M8 15.5C12.1423 15.5 15.5 12.1423 15.5 8C15.5 3.85775 12.1423 0.500001 8 0.5C3.85775 0.5 0.500002 3.85775 0.500002 8C0.500001 12.1422 3.85775 15.5 8 15.5ZM8 14.75C8 12.9598 8.71116 11.2429 9.97703 9.97703C11.2429 8.71116 12.9598 8 14.75 8C12.9598 8 11.2429 7.28884 9.97703 6.02297C8.71116 4.7571 8 3.04021 8 1.25C8 3.04021 7.28884 4.7571 6.02297 6.02297C4.7571 7.28884 3.04021 8 1.25 8C3.04021 8 4.7571 8.71116 6.02297 9.97703C7.28884 11.2429 8 12.9598 8 14.75Z" fill="black"/>
</svg>
