<svg width="17" height="12" viewBox="0 0 17 12" fill="none" xmlns="http://www.w3.org/2000/svg">
<path d="M1.2 0H7.2C7.51826 0 7.82348 0.126428 8.04853 0.351472C8.27357 0.576516 8.4 0.88174 8.4 1.2C8.4 1.51826 8.27357 1.82348 8.04853 2.04853C7.82348 2.27357 7.51826 2.4 7.2 2.4H1.2C0.88174 2.4 0.576515 2.27357 0.351472 2.04853C0.126428 1.82348 0 1.51826 0 1.2C0 0.88174 0.126428 0.576516 0.351472 0.351472C0.576515 0.126428 0.88174 0 1.2 0ZM9.6 9.6H15.6C15.9183 9.6 16.2235 9.72643 16.4485 9.95147C16.6736 10.1765 16.8 10.4817 16.8 10.8C16.8 11.1183 16.6736 11.4235 16.4485 11.6485C16.2235 11.8736 15.9183 12 15.6 12H9.6C9.28174 12 8.97651 11.8736 8.75147 11.6485C8.52643 11.4235 8.4 11.1183 8.4 10.8C8.4 10.4817 8.52643 10.1765 8.75147 9.95147C8.97651 9.72643 9.28174 9.6 9.6 9.6ZM1.2 4.8H15.6C15.9183 4.8 16.2235 4.92643 16.4485 5.15147C16.6736 5.37652 16.8 5.68174 16.8 6C16.8 6.31826 16.6736 6.62348 16.4485 6.84853C16.2235 7.07357 15.9183 7.2 15.6 7.2H1.2C0.88174 7.2 0.576515 7.07357 0.351472 6.84853C0.126428 6.62348 0 6.31826 0 6C0 5.68174 0.126428 5.37652 0.351472 5.15147C0.576515 4.92643 0.88174 4.8 1.2 4.8Z" fill="black"/>
</svg>
